<?xml version="1.0" standalone="no"?>
<!DOCTYPE svg PUBLIC "-//W3C//DTD SVG 20010904//EN"
 "http://www.w3.org/TR/2001/REC-SVG-20010904/DTD/svg10.dtd">
<svg version="1.0" xmlns="http://www.w3.org/2000/svg"
 width="600.000000pt" height="600.000000pt" viewBox="0 0 600.000000 600.000000"
 preserveAspectRatio="xMidYMid meet">
<metadata>
Created by potrace 1.14, written by Peter Selinger 2001-2017
</metadata>
<g transform="translate(0.000000,600.000000) scale(0.100000,-0.100000)"
fill="#000000" stroke="none">
<path d="M2725 4979 c-675 -52 -1290 -468 -1605 -1084 -147 -288 -212 -561
-213 -890 0 -214 10 -305 54 -485 126 -510 442 -942 899 -1227 254 -158 597
-268 865 -277 55 -2 80 -2 55 0 -283 23 -528 88 -755 201 -274 137 -521 338
-696 568 -242 316 -382 688 -408 1080 -33 494 113 961 424 1360 71 91 250 268
340 336 598 457 1392 541 2063 219 205 -99 356 -204 521 -364 123 -120 196
-208 281 -336 157 -240 260 -508 306 -801 22 -138 22 -428 1 -566 -102 -656
-498 -1200 -1087 -1494 -229 -114 -458 -175 -755 -203 -22 -2 3 -2 55 0 250 8
589 116 839 266 756 452 1127 1335 920 2187 -140 576 -544 1070 -1079 1324
-219 104 -463 168 -712 187 -146 11 -154 11 -313 -1z"/>
<path d="M2755 4954 c-16 -2 -73 -9 -125 -15 -117 -14 -304 -60 -419 -104
-1039 -396 -1547 -1548 -1136 -2575 227 -566 737 -1016 1321 -1164 193 -49
285 -60 499 -60 220 0 318 13 515 65 576 153 1063 579 1295 1133 201 480 204
1012 10 1496 -273 680 -910 1152 -1645 1219 -109 10 -249 12 -315 5z m-75
-142 c0 -4 -6 -16 -14 -27 -24 -36 -59 -144 -53 -167 4 -12 1 -28 -5 -35 -6
-8 -9 -45 -6 -99 l5 -86 -31 -19 c-32 -20 -74 -18 -88 4 -9 14 -1 65 19 121
10 31 11 42 1 54 -10 12 -8 18 14 36 33 27 92 146 72 146 -7 0 -48 -8 -90 -17
-70 -15 -77 -19 -92 -50 -25 -53 -42 -42 -42 27 0 54 2 60 23 65 12 3 69 16
127 29 112 25 160 31 160 18z m722 -49 c51 -20 88 -66 88 -108 0 -46 -74 -125
-116 -125 -31 0 -204 -60 -204 -71 0 -4 41 -17 91 -29 88 -22 93 -22 121 -5
16 9 32 15 35 12 3 -3 -2 -28 -11 -55 l-17 -50 -117 30 c-190 47 -192 48 -192
63 0 18 67 68 137 103 32 16 52 32 50 40 -1 8 7 16 17 18 57 9 68 16 87 59 17
39 18 49 7 73 -15 31 -68 49 -112 38 -32 -8 -34 -22 -2 -30 29 -7 41 -33 24
-53 -22 -27 -108 -1 -108 32 0 21 49 73 73 78 33 7 106 -3 149 -20z m-1151
-83 c26 -15 24 -35 -7 -59 -47 -37 -108 -17 -74 24 9 11 10 15 1 15 -48 0 -75
-61 -60 -131 14 -60 18 -64 48 -35 59 56 122 60 181 11 23 -19 46 -35 52 -35
5 0 6 -5 3 -10 -4 -6 -8 -28 -10 -51 -5 -50 -27 -86 -72 -121 -74 -57 -163
-43 -229 38 -20 24 -41 44 -48 44 -18 0 -19 143 -1 187 41 98 148 159 216 123z
m1506 -60 c58 -35 81 -107 59 -189 -7 -29 -11 -62 -9 -72 3 -11 0 -19 -7 -19
-7 0 -37 -22 -65 -49 -61 -58 -107 -72 -169 -50 -70 25 -105 103 -84 189 6 25
10 57 9 73 -1 18 4 27 14 27 9 0 30 17 48 37 65 74 139 93 204 53z m-733 4 c9
-3 16 -17 16 -31 l0 -24 -121 2 c-124 1 -140 7 -125 44 4 12 26 15 110 15 57
0 111 -3 120 -6z m-1152 -170 c40 -7 38 4 23 -110 -4 -36 -4 -36 28 -31 18 3
57 -2 87 -10 l55 -16 2 -52 c2 -43 -3 -60 -27 -98 -55 -88 -163 -136 -227
-102 -38 21 -42 46 -18 114 l14 41 -37 0 c-41 0 -130 39 -126 55 1 6 5 26 8
46 9 55 60 124 109 148 46 23 54 24 109 15z m2227 -79 c12 -11 5 -24 -43 -81
-31 -38 -56 -76 -56 -86 0 -10 -6 -18 -14 -18 -15 0 -116 -108 -116 -124 0 -6
12 -22 27 -38 14 -15 24 -30 22 -33 -6 -5 -212 161 -217 176 -6 15 11 10 38
-11 14 -11 30 -20 36 -20 16 0 104 112 104 133 0 9 5 17 12 17 19 0 88 72 88
91 0 10 -14 27 -30 39 -53 38 -22 40 58 3 42 -19 83 -41 91 -48z m-919 -154
c572 -143 970 -643 970 -1218 0 -265 -62 -474 -208 -697 -341 -521 -1019 -713
-1578 -447 -133 64 -239 136 -342 235 -393 377 -496 967 -253 1456 66 132 129
218 246 336 182 183 404 300 664 349 114 22 389 14 501 -14z m1149 -82 c50
-61 91 -117 91 -125 0 -11 -16 -14 -67 -14 -74 0 -143 -15 -143 -31 0 -6 -8
-9 -17 -8 -36 3 -50 -2 -107 -36 -32 -19 -66 -35 -75 -35 -32 0 -66 48 -62 87
1 14 91 43 134 43 20 0 30 6 34 20 6 24 8 24 43 4 22 -13 41 -15 94 -10 75 9
74 0 1 93 -35 45 -45 52 -80 55 -22 2 -40 8 -39 13 1 11 73 55 91 55 6 0 53
-50 102 -111z m-2756 -23 c38 -30 74 -53 80 -50 7 2 17 -5 22 -17 6 -12 36
-42 68 -67 l57 -45 35 33 c61 60 38 13 -46 -90 -100 -123 -124 -143 -77 -65
12 22 17 40 12 43 -6 4 -35 26 -66 50 -35 27 -61 40 -72 36 -11 -4 -16 -1 -16
14 0 11 -20 36 -47 58 l-46 38 -31 -38 c-18 -20 -35 -34 -38 -31 -4 4 7 34 23
68 16 34 29 69 29 78 0 17 19 39 35 39 5 0 41 -25 78 -54z m-52 -337 c39 -41
39 -88 2 -128 -39 -41 -80 -48 -123 -19 -40 27 -56 63 -46 102 19 78 113 103
167 45z m2884 7 c47 -48 44 -111 -8 -149 -64 -48 -157 -2 -157 79 0 81 108
127 165 70z m-3197 -230 c31 -16 74 -61 91 -93 6 -12 11 -41 11 -65 l1 -43 19
36 c21 39 47 65 57 56 3 -4 -3 -28 -13 -54 -10 -26 -21 -52 -23 -58 -2 -5 9 2
25 17 36 34 106 59 162 59 56 1 61 -6 28 -32 -14 -11 -34 -28 -43 -37 -48 -49
-98 -73 -182 -88 -13 -3 -30 -11 -38 -19 -16 -17 -33 -69 -32 -100 0 -19 1
-19 11 3 21 42 31 24 26 -48 l-5 -69 27 38 c38 52 120 102 178 109 l47 5 -21
-24 c-12 -13 -33 -45 -48 -71 -33 -57 -91 -111 -151 -140 -58 -29 -77 -66 -64
-131 5 -26 13 -56 18 -65 9 -15 10 -13 11 8 0 34 11 70 20 70 10 0 30 -80 31
-127 1 -34 2 -35 8 -12 22 69 86 148 151 183 53 29 90 35 71 12 -6 -7 -22 -45
-35 -83 -39 -113 -65 -153 -158 -229 -39 -33 -43 -81 -14 -145 l24 -54 1 48
c1 26 6 47 12 47 22 0 61 -110 68 -193 4 -46 13 -92 20 -103 10 -16 11 -12 6
26 -20 160 -19 176 13 243 33 71 90 140 134 163 30 15 33 13 19 -14 -5 -10
-12 -53 -16 -97 -3 -44 -11 -96 -17 -115 -14 -46 -62 -132 -88 -155 -32 -29
-28 -105 9 -158 16 -23 38 -50 49 -60 19 -18 19 -17 9 22 -6 22 -7 44 -3 48
21 21 116 -139 116 -194 0 -8 10 -32 22 -52 34 -53 36 -13 3 43 -50 85 -50
185 1 295 22 50 68 111 83 111 7 0 14 -108 15 -220 0 -73 -4 -95 -31 -157 -26
-61 -30 -79 -23 -110 11 -47 72 -104 170 -159 42 -24 70 -46 70 -56 0 -13 -9
-11 -51 15 -28 18 -79 53 -113 79 -33 26 -82 59 -108 73 -26 14 -81 47 -123
74 -96 63 -157 83 -274 90 l-95 6 35 26 c48 36 92 49 166 49 72 0 112 -14 163
-56 25 -21 21 -13 -16 26 -28 30 -63 74 -79 98 -15 23 -32 42 -37 42 -6 0 -53
42 -106 93 -54 51 -113 102 -132 114 -42 25 -154 63 -187 63 -35 0 -28 18 15
36 74 32 196 14 266 -40 l31 -23 -31 63 c-17 35 -38 72 -46 82 -9 9 -41 59
-73 110 -61 100 -132 166 -212 200 -49 19 -53 27 -20 36 66 18 153 -7 217 -61
32 -28 41 -32 37 -17 -4 10 -11 37 -16 59 -20 80 -89 256 -117 297 -16 23 -50
58 -77 79 -26 21 -43 40 -38 43 5 4 32 1 60 -5 65 -14 143 -81 164 -142 l15
-42 1 75 c0 170 -15 294 -43 356 -15 32 -37 69 -48 81 -19 20 -19 23 -4 23 9
0 29 -6 44 -14z m3408 -19 c-51 -67 -67 -121 -77 -261 -6 -73 -9 -157 -7 -187
l3 -54 13 42 c18 60 96 128 164 142 28 7 55 8 60 3 4 -4 -12 -22 -37 -40 -58
-41 -109 -119 -141 -217 -14 -44 -32 -91 -39 -105 -7 -14 -15 -42 -19 -63 -4
-21 -10 -46 -13 -55 -4 -12 3 -9 23 9 71 63 151 89 228 75 43 -8 46 -21 9 -31
-83 -20 -180 -109 -253 -231 -28 -46 -55 -86 -61 -89 -8 -5 -69 -130 -69 -141
0 -2 12 8 26 21 58 54 195 75 267 40 42 -20 48 -35 15 -35 -34 0 -108 -25
-169 -55 -31 -16 -94 -67 -149 -120 -52 -50 -102 -96 -111 -101 -8 -5 -25 -25
-37 -45 -12 -20 -41 -54 -65 -76 -57 -53 -82 -86 -33 -44 56 47 95 61 176 61
52 0 82 -6 113 -21 43 -22 77 -47 77 -58 0 -3 -39 -6 -88 -6 -110 0 -182 -25
-308 -106 -50 -33 -96 -59 -102 -59 -6 0 -36 -20 -67 -45 -49 -41 -178 -125
-190 -125 -3 0 -5 6 -5 13 0 6 32 30 72 52 101 57 155 108 169 157 9 37 8 47
-16 95 -43 88 -51 146 -36 267 7 58 10 110 6 116 -15 25 16 7 45 -27 51 -57
73 -117 78 -210 4 -77 2 -87 -27 -148 -18 -37 -31 -71 -29 -77 6 -17 45 51 53
92 14 68 94 195 111 177 4 -4 3 -27 -3 -50 l-11 -42 38 43 c78 87 84 141 24
219 -61 80 -78 127 -89 244 -3 37 -10 81 -15 98 l-9 31 29 -15 c37 -19 99 -91
130 -151 20 -40 25 -63 24 -124 0 -41 -4 -97 -8 -125 -7 -48 -6 -49 7 -20 8
17 17 63 20 104 6 72 46 181 67 181 5 0 10 -21 12 -47 l3 -48 23 58 c30 78 20
119 -43 165 -55 41 -101 112 -125 192 -10 34 -26 73 -35 87 l-17 26 32 -7 c71
-14 176 -119 199 -200 l9 -31 1 38 c1 47 21 127 31 127 11 0 20 -27 20 -63 0
-45 16 -22 29 43 15 70 -3 108 -65 138 -61 30 -118 84 -152 145 -16 29 -37 59
-46 66 -25 21 -10 30 36 19 61 -13 144 -71 180 -126 17 -26 27 -38 23 -27 -4
11 -10 48 -13 83 -5 64 6 80 27 40 10 -20 11 -18 7 20 -7 67 -26 87 -94 101
-33 6 -74 22 -91 34 -61 44 -130 102 -131 110 0 13 95 7 142 -9 25 -8 54 -24
64 -35 25 -28 37 -23 21 9 -19 37 -29 82 -19 82 12 0 36 -29 55 -64 l15 -30 0
44 c1 70 86 170 144 170 17 0 17 -3 -6 -33z m-1051 -1758 c25 -12 59 -39 76
-61 33 -41 78 -140 79 -170 0 -10 12 -23 26 -31 l26 -14 -26 -16 c-14 -10 -26
-26 -26 -37 0 -49 -44 -136 -94 -186 -42 -43 -61 -54 -108 -64 -92 -21 -157
-2 -224 65 -44 43 -56 65 -74 124 -14 44 -30 77 -44 87 l-21 15 21 17 c12 9
27 39 33 66 7 27 20 65 31 85 23 45 87 109 126 126 47 22 147 18 199 -6z
m-1198 -1 c4 -7 6 -64 4 -127 -3 -110 -2 -115 21 -133 l23 -18 -23 -18 c-21
-17 -23 -24 -20 -112 l3 -95 48 -3 c41 -3 47 -6 47 -25 0 -22 0 -22 -185 -19
-171 3 -185 4 -185 21 0 14 10 20 41 24 22 3 42 7 44 9 2 2 5 46 6 98 2 83 0
95 -17 105 -10 5 -21 11 -23 12 -2 2 7 12 21 23 22 17 25 27 24 77 l-1 58 -60
8 c-84 11 -88 13 -76 36 8 13 27 21 62 26 28 4 88 20 133 35 94 33 102 34 113
18z m687 -103 c-15 -49 -35 -57 -150 -60 -60 -1 -135 -3 -167 -4 l-58 -1 2
-52 c1 -29 4 -56 5 -59 2 -3 27 0 56 8 68 18 166 9 234 -22 53 -24 96 -70 115
-123 6 -17 19 -34 30 -37 26 -8 24 -19 -6 -39 -14 -9 -25 -22 -25 -28 0 -24
-53 -79 -98 -102 -157 -79 -401 -45 -443 61 -19 51 32 113 95 113 61 0 104
-47 87 -94 -10 -25 -30 -36 -67 -36 -58 0 -3 -36 70 -46 56 -8 121 11 145 43
28 34 28 89 1 98 -11 3 -20 10 -20 15 0 5 9 12 20 15 27 9 27 64 0 98 -40 50
-157 48 -209 -4 -20 -19 -40 -29 -60 -29 l-31 0 0 148 c0 82 2 151 4 153 3 2
110 4 240 4 231 0 236 0 230 -20z"/>
<path d="M2160 4461 l-21 -31 32 -61 c40 -74 69 -97 104 -81 35 16 32 56 -8
134 -26 50 -38 64 -59 66 -19 2 -31 -4 -48 -27z"/>
<path d="M3685 4586 c-33 -33 -67 -104 -60 -125 4 -13 0 -20 -14 -24 -21 -5
-55 -63 -66 -115 -8 -36 7 -62 34 -62 36 0 106 108 96 147 -4 18 -1 23 13 23
14 0 27 17 46 59 29 64 32 91 14 109 -18 18 -36 15 -63 -12z"/>
<path d="M3560 4498 c-11 -18 -20 -36 -20 -40 0 -17 11 -6 30 32 25 48 18 53
-10 8z"/>
<path d="M2810 4600 c0 -5 7 -7 15 -4 8 4 15 8 15 10 0 2 -7 4 -15 4 -8 0 -15
-4 -15 -10z"/>
<path d="M1739 4397 c-19 -12 -38 -35 -44 -51 -8 -24 -6 -31 15 -48 20 -17 35
-19 77 -15 68 7 73 11 73 58 0 73 -56 100 -121 56z"/>
<path d="M1886 4217 c-52 -16 -67 -55 -41 -104 30 -55 87 -57 144 -4 21 20 31
38 31 58 0 57 -49 75 -134 50z"/>
<path d="M2658 4173 c7 -3 16 -2 19 1 4 3 -2 6 -13 5 -11 0 -14 -3 -6 -6z"/>
<path d="M2795 4134 c-247 -33 -417 -98 -582 -223 -617 -465 -611 -1381 12
-1841 330 -244 783 -285 1160 -105 230 110 422 300 538 530 86 172 130 422
108 615 -57 505 -418 903 -914 1004 -79 17 -265 28 -322 20z m-139 -385 c28
-26 37 -24 32 6 -5 22 -2 25 22 25 31 0 55 -23 65 -61 5 -20 0 -33 -18 -55
-22 -25 -32 -28 -88 -30 -35 -1 -68 1 -74 5 -5 4 -31 8 -57 9 -39 2 -49 -1
-66 -23 -22 -28 -20 -43 11 -88 29 -43 40 -93 27 -131 -13 -40 -51 -78 -57
-58 -3 8 -11 5 -24 -10 -17 -22 -18 -22 -19 -4 0 16 -3 17 -12 8 -15 -15 -32
-16 -23 -2 3 6 2 10 -2 10 -5 0 -14 -9 -21 -20 -15 -25 -35 -26 -28 -2 4 10
-1 27 -9 38 -22 29 -18 53 11 66 20 9 30 9 45 0 52 -32 107 7 94 67 -10 48
-29 56 -68 32 -19 -12 -46 -21 -61 -21 -22 0 -31 8 -46 43 -26 56 -25 64 9 81
27 15 30 14 44 -7 l15 -22 38 20 c84 44 129 106 89 121 -25 10 -17 24 14 24
17 0 42 -11 59 -25 39 -33 46 -32 38 6 -5 28 -4 30 17 23 12 -3 31 -15 43 -25z
m1014 1 c33 -17 43 -47 30 -86 -15 -44 -53 -64 -126 -64 -46 0 -55 -3 -50 -15
8 -21 -17 -19 -64 5 -47 24 -54 25 -46 5 8 -21 -7 -19 -37 5 -22 17 -26 18
-37 5 -19 -23 -31 -18 -24 9 3 13 1 27 -4 30 -5 3 -12 -4 -15 -15 -5 -19 -9
-18 -46 21 -40 42 -41 42 -96 38 -69 -6 -99 -31 -99 -82 0 -69 59 -92 85 -33
17 40 30 41 40 3 12 -45 50 -64 41 -21 -5 30 -1 30 41 8 26 -13 62 -17 187
-17 141 -1 159 -3 197 -23 48 -26 53 -32 64 -81 9 -40 -2 -76 -34 -110 -19
-20 -21 -33 -19 -82 4 -64 -23 -141 -73 -206 -14 -18 -25 -40 -25 -49 0 -23
28 -30 49 -11 10 9 21 16 24 16 15 0 6 -41 -14 -61 l-21 -21 21 -22 c12 -12
21 -28 21 -34 0 -7 13 -20 30 -31 16 -10 27 -21 23 -24 -10 -11 -62 -8 -84 4
-16 8 -25 7 -38 -5 -24 -22 -71 -21 -71 1 0 15 -2 15 -17 0 -10 -8 -29 -17
-43 -19 -19 -2 -24 1 -22 15 4 21 -17 22 -44 2 -24 -18 -34 -19 -34 -1 0 28
-19 26 -52 -3 -29 -25 -41 -29 -93 -29 -33 0 -67 -1 -75 -3 -15 -4 -16 3 -5
34 6 13 2 17 -19 17 -59 0 -3 46 78 64 58 13 67 28 29 45 -54 24 -123 73 -123
87 0 19 116 74 156 74 47 0 65 -20 71 -76 6 -55 22 -73 58 -66 30 5 33 -12 5
-35 -12 -10 -20 -30 -20 -47 0 -27 1 -28 18 -14 9 9 34 23 55 31 20 9 37 21
37 26 0 6 -25 27 -55 47 -46 31 -57 44 -67 83 -11 38 -20 49 -51 65 -34 16
-44 17 -83 6 -24 -7 -77 -31 -117 -54 -95 -54 -164 -84 -215 -92 l-42 -6 7 79
c9 121 -23 163 -125 163 -101 0 -145 -63 -118 -167 8 -32 18 -66 22 -76 6 -16
3 -17 -22 -11 -76 18 -130 71 -163 159 -27 71 -26 79 3 98 22 15 24 14 45 -14
l22 -30 39 31 c32 26 46 30 97 30 32 0 63 4 68 9 6 6 28 5 56 -1 55 -13 79 -6
79 22 0 17 6 20 40 20 67 0 138 38 98 53 -22 7 -5 16 88 43 173 51 190 55 289
60 87 6 109 3 164 -15 76 -26 111 -22 111 14 0 45 -36 57 -167 57 -65 0 -152
-6 -193 -13 -65 -10 -85 -9 -150 5 -124 28 -149 30 -156 12 -9 -23 -19 -20
-32 9 -14 29 -7 52 19 66 15 8 17 14 9 29 -37 69 17 131 130 150 91 15 123 10
287 -46 104 -36 143 -44 185 -42 55 3 54 2 41 50 -3 9 5 26 16 37 24 24 26 24
51 11z m-1524 -58 c-14 -17 -16 -47 -16 -237 0 -144 -4 -223 -11 -232 -16 -19
-75 -17 -83 3 -10 27 -6 357 5 398 13 46 50 84 87 88 36 5 38 2 18 -20z m461
-89 c20 -14 23 -13 29 0 4 11 15 14 38 10 18 -3 43 0 55 7 18 9 30 8 61 -7 22
-10 40 -21 40 -25 0 -9 -67 -28 -97 -28 -15 0 -23 -6 -23 -16 0 -14 -7 -15
-41 -10 -35 6 -40 4 -36 -9 8 -19 -6 -19 -44 1 -16 8 -38 12 -49 9 -31 -10
-67 64 -43 89 11 10 84 -4 110 -21z m197 -68 c11 -8 32 -15 48 -15 15 0 28 -4
28 -9 0 -12 -42 -39 -75 -47 -18 -4 -24 -11 -20 -22 5 -12 -2 -14 -44 -9 -38
5 -50 3 -53 -8 -2 -12 -10 -11 -43 4 -36 16 -41 16 -52 2 -11 -15 -13 -14 -29
1 -16 16 -23 63 -10 75 3 4 22 -1 41 -10 40 -19 66 -22 81 -8 5 5 25 11 44 13
24 2 34 8 32 17 -2 8 3 18 10 22 17 11 20 11 42 -6z m-603 -34 c-17 -32 11
-47 60 -33 21 7 56 17 77 24 38 11 92 5 92 -11 0 -4 -12 -8 -28 -9 -15 0 -56
-14 -92 -31 -36 -17 -77 -31 -92 -31 -50 0 -83 57 -52 91 23 26 48 26 35 0z
m219 -56 c0 -8 -7 -15 -15 -15 -8 0 -15 7 -15 15 0 8 7 15 15 15 8 0 15 -7 15
-15z m446 6 c5 -5 25 -11 44 -13 l35 -4 -38 -17 c-21 -10 -42 -15 -47 -12 -6
4 -10 -1 -10 -9 0 -8 5 -18 12 -22 19 -12 -31 -25 -68 -18 -27 5 -34 3 -34
-10 0 -19 -33 -20 -75 -2 -26 11 -32 10 -42 -3 -10 -14 -15 -14 -47 1 -33 16
-36 16 -45 1 -7 -14 -12 -15 -24 -4 -14 11 -14 16 0 46 16 34 16 34 45 17 20
-12 31 -13 39 -5 8 8 22 8 51 -3 53 -18 72 -18 64 1 -4 12 2 15 28 15 43 0 68
9 60 22 -12 20 34 36 52 19z m134 -60 c0 -13 -22 -29 -53 -36 -30 -8 -33 -15
-15 -33 19 -19 -7 -32 -64 -32 -44 0 -48 -2 -48 -25 0 -29 -20 -32 -83 -14
-33 9 -41 8 -51 -6 -10 -13 -19 -14 -56 -6 -40 9 -48 8 -77 -15 -39 -30 -41
-30 -53 1 -12 32 -28 31 -75 0 -20 -15 -40 -24 -42 -21 -3 3 22 34 56 68 38
40 64 59 68 52 5 -6 18 -16 30 -23 19 -10 24 -8 33 9 10 19 12 19 42 4 23 -12
37 -13 53 -6 12 5 43 7 70 4 37 -4 51 -1 60 11 6 8 29 17 51 19 31 2 40 7 42
25 3 18 11 23 50 26 26 2 50 4 55 5 4 1 7 -2 7 -7z m-820 -195 c0 -5 -10 -20
-22 -33 -17 -19 -22 -37 -24 -100 -1 -43 -4 -87 -6 -98 -2 -14 3 -21 20 -23
34 -5 27 -26 -24 -68 -46 -37 -47 -37 -63 -18 -9 10 -30 26 -46 34 -17 9 -31
24 -33 33 -3 15 1 17 22 11 17 -4 26 -2 26 5 0 6 11 16 24 22 23 11 24 16 23
93 -2 80 -2 81 -31 92 -36 13 -59 44 -47 63 7 11 13 11 32 -3 35 -24 77 -20
102 9 20 22 23 23 35 8 6 -9 12 -21 12 -27z m607 -42 c25 -25 25 -28 19 -111
-4 -46 -9 -90 -12 -96 -2 -7 2 -21 10 -32 13 -17 18 -18 35 -7 28 17 31 16 31
-12 0 -14 -10 -32 -22 -41 l-23 -16 32 -29 c17 -15 29 -31 26 -34 -12 -12 -59
-6 -81 10 -21 14 -25 14 -40 1 -9 -8 -32 -22 -49 -31 -33 -16 -33 -16 -33 9 0
32 -13 32 -43 -1 -24 -26 -24 -26 -39 -5 -13 18 -18 19 -51 9 -20 -6 -40 -8
-44 -5 -11 11 31 61 63 75 93 41 98 53 65 162 -28 92 -27 116 8 151 40 40 109
41 148 3z m-371 -104 c18 -30 18 -30 -13 -62 -17 -18 -36 -43 -42 -55 -7 -13
-15 -23 -20 -23 -11 0 -31 46 -31 70 0 18 -5 19 -74 13 l-75 -6 0 72 c0 65 2
72 17 66 44 -18 98 -15 147 8 l50 24 12 -38 c6 -21 20 -52 29 -69z m-393 78
c18 -15 36 -158 20 -158 -32 0 -67 84 -57 137 7 36 12 39 37 21z m154 -448
c36 -13 62 -58 41 -71 -18 -12 -36 -11 -43 1 -12 20 -43 10 -49 -15 -15 -57
27 -104 50 -56 7 15 14 17 32 10 28 -10 28 -29 1 -63 -18 -23 -28 -27 -62 -24
-56 4 -82 41 -81 113 0 57 18 89 59 106 11 4 20 8 21 8 1 1 15 -4 31 -9z m213
-25 c0 -22 -4 -25 -40 -25 -29 0 -40 -4 -40 -15 0 -11 11 -15 40 -15 36 0 40
-2 40 -25 0 -22 -4 -25 -40 -25 -29 0 -40 -4 -40 -15 0 -11 12 -15 45 -15 43
0 45 -1 45 -30 l0 -30 -75 0 -75 0 0 110 0 110 70 0 c68 0 70 -1 70 -25z m82
0 c6 -14 14 -25 18 -25 4 0 12 11 18 25 9 19 19 25 42 25 16 0 30 -2 30 -5 0
-3 -13 -32 -30 -65 -20 -40 -30 -74 -30 -105 0 -43 -1 -45 -30 -45 -29 0 -30
2 -30 45 0 31 -10 65 -30 105 -16 33 -30 62 -30 65 0 3 14 5 30 5 23 0 33 -6
42 -25z m178 -55 l0 -80 40 0 c38 0 40 -2 40 -30 l0 -30 -70 0 -70 0 0 110 0
110 30 0 30 0 0 -80z m239 54 c32 -41 30 -136 -4 -169 -34 -35 -96 -35 -124 0
-24 32 -35 76 -26 115 12 54 41 80 90 80 35 0 48 -5 64 -26z m125 -21 l25 -48
1 48 c0 46 1 47 30 47 l30 0 0 -110 0 -110 -30 0 c-25 0 -33 7 -54 48 l-25 47
-1 -47 c0 -47 -1 -48 -30 -48 l-30 0 0 110 0 110 30 0 c25 0 33 -7 54 -47z
m336 17 c0 -25 -4 -30 -25 -30 -25 0 -25 -1 -25 -80 l0 -80 -30 0 -30 0 0 80
c0 79 0 80 -25 80 -21 0 -25 5 -25 30 l0 30 80 0 80 0 0 -30z m160 6 c0 -22
-5 -25 -42 -28 -56 -4 -64 -28 -9 -28 37 0 41 -3 41 -24 0 -21 -5 -25 -37 -28
-55 -5 -55 -28 0 -28 40 0 46 -3 49 -22 2 -13 15 21 32 80 l29 102 33 0 c32 0
33 -1 58 -82 43 -143 42 -138 9 -138 -16 0 -36 9 -46 20 -17 21 -42 18 -51 -6
-4 -11 -29 -14 -111 -14 l-105 0 0 110 0 110 75 0 c73 0 75 -1 75 -24z m-1362
-238 c9 -9 12 -9 12 0 0 22 40 13 49 -10 l8 -23 7 23 c7 20 13 23 54 20 43 -3
47 -5 52 -33 l6 -30 11 33 c9 25 18 32 37 32 26 0 26 -1 26 -80 0 -73 -2 -80
-20 -80 -16 0 -20 7 -21 33 l-1 32 -7 -30 c-8 -40 -36 -44 -49 -8 l-10 28 -1
-27 c-1 -18 -6 -28 -16 -28 -12 0 -15 14 -15 68 -1 63 -2 66 -15 41 -8 -14
-16 -44 -18 -65 -3 -31 -9 -40 -26 -42 -19 -3 -21 1 -21 40 0 55 -10 70 -50
73 l-32 3 34 -28 c29 -25 32 -30 23 -56 -9 -24 -17 -30 -47 -32 -29 -3 -39 1
-48 19 -16 29 7 45 31 23 11 -10 19 -11 23 -5 4 5 -6 16 -21 23 -49 23 -40 98
11 98 12 0 27 -5 34 -12z m372 -8 c6 -11 8 -32 5 -47 -3 -16 2 -8 12 17 16 39
23 45 50 48 39 4 56 -23 56 -85 0 -51 -16 -73 -53 -73 -30 0 -45 13 -53 45 -4
19 -5 19 -6 -1 -2 -31 -25 -46 -68 -42 l-38 3 -3 64 c-4 84 -1 91 47 91 30 0
43 -5 51 -20z m180 -40 c0 -53 2 -60 20 -60 13 0 20 -7 20 -20 0 -17 -7 -20
-42 -20 l-43 0 1 73 c2 93 1 87 24 87 18 0 20 -7 20 -60z m170 45 c21 -25 24
-92 6 -120 -21 -31 -70 -35 -86 -6 -16 30 -12 107 6 125 19 20 58 21 74 1z
m120 -5 c0 -15 -7 -20 -25 -20 -15 0 -25 -6 -25 -14 0 -8 8 -13 17 -12 10 0
19 -7 21 -16 2 -13 -3 -18 -17 -18 -17 0 -21 -6 -21 -30 0 -23 -4 -30 -20 -30
-18 0 -20 7 -20 80 l0 80 45 0 c38 0 45 -3 45 -20z m130 1 c5 -11 10 -38 10
-61 0 -23 -5 -50 -10 -61 -7 -13 -7 -19 0 -19 5 0 10 -7 10 -15 0 -24 -32 -17
-70 15 -31 26 -35 34 -35 78 0 27 6 56 14 65 19 23 68 22 81 -2z m68 -49 c4
-79 22 -72 22 9 0 52 2 59 20 59 18 0 20 -7 21 -62 l1 -63 17 60 c13 46 22 61
38 63 18 3 23 -7 39 -70 l19 -73 3 73 c3 64 5 72 22 72 18 0 20 -7 20 -60 0
-58 1 -60 26 -60 25 0 25 2 23 58 l-3 57 86 3 c82 3 87 2 94 -20 l7 -23 10 23
c6 12 19 22 29 22 21 0 19 -19 -8 -72 -8 -15 -14 -41 -14 -58 0 -23 -4 -30
-20 -30 -16 0 -20 7 -20 34 0 43 -21 94 -37 89 -9 -3 -13 -25 -13 -64 0 -56
-1 -59 -25 -59 -14 0 -24 3 -24 8 1 4 1 31 0 60 -1 73 -21 66 -21 -8 l0 -60
-90 0 c-73 0 -90 3 -90 15 0 8 -6 15 -14 15 -8 0 -16 -7 -20 -15 -8 -21 -36
-19 -36 3 -1 16 -1 16 -11 0 -6 -12 -22 -18 -45 -18 -41 0 -54 24 -54 99 0 52
6 63 30 59 11 -2 16 -19 18 -66z"/>
<path d="M2330 3570 c0 -5 9 -10 21 -10 11 0 17 5 14 10 -3 6 -13 10 -21 10
-8 0 -14 -4 -14 -10z"/>
<path d="M3355 3380 c-14 -16 -15 -22 -5 -35 28 -34 77 -4 53 33 -15 24 -28
24 -48 2z"/>
<path d="M3210 3366 c-27 -33 18 -72 48 -42 13 13 14 20 6 34 -15 23 -38 26
-54 8z"/>
<path d="M3464 3326 c-10 -25 0 -51 20 -54 27 -6 48 25 35 49 -12 22 -47 25
-55 5z"/>
<path d="M3122 3301 c-21 -13 -11 -55 14 -59 30 -4 48 21 34 47 -11 22 -27 26
-48 12z"/>
<path d="M3299 3274 c-17 -21 0 -49 32 -49 27 0 37 28 19 50 -16 19 -34 19
-51 -1z"/>
<path d="M3572 3261 c-8 -4 -12 -19 -10 -32 4 -29 45 -34 61 -7 19 30 -19 60
-51 39z"/>
<path d="M2986 3235 c-8 -22 -8 -21 10 -39 21 -22 56 -3 52 27 -4 28 -52 37
-62 12z"/>
<path d="M2885 3206 c-24 -17 -15 -50 14 -54 39 -6 56 39 22 57 -13 7 -23 6
-36 -3z"/>
<path d="M3406 3204 c-10 -9 -15 -23 -12 -31 3 -8 6 -17 6 -19 0 -2 11 -4 25
-4 29 0 43 25 28 48 -14 23 -29 25 -47 6z"/>
<path d="M3211 3192 c-12 -23 4 -52 29 -52 25 0 41 30 29 53 -13 22 -46 22
-58 -1z"/>
<path d="M3090 3166 c-27 -33 18 -72 48 -42 13 13 14 20 6 34 -15 23 -38 26
-54 8z"/>
<path d="M2453 3134 c-6 -17 6 -45 23 -51 5 -2 19 3 29 11 16 12 18 18 9 33
-15 24 -52 29 -61 7z"/>
<path d="M3511 3126 c-9 -11 -10 -20 -1 -35 13 -26 46 -27 59 -3 20 38 -31 71
-58 38z"/>
<path d="M2980 3115 c-19 -23 -8 -50 22 -53 34 -4 50 34 22 55 -23 17 -29 16
-44 -2z"/>
<path d="M2863 3054 c-15 -39 38 -67 60 -32 8 12 7 21 -2 32 -17 21 -50 20
-58 0z"/>
<path d="M3415 3056 c-27 -20 -15 -51 20 -51 23 0 31 5 33 22 4 29 -28 47 -53
29z"/>
<path d="M2514 3045 c-10 -25 4 -45 30 -45 25 0 39 20 30 45 -4 8 -17 15 -30
15 -14 0 -27 -7 -30 -15z"/>
<path d="M2516 3603 c-11 -11 -6 -23 9 -23 8 0 15 4 15 9 0 13 -16 22 -24 14z"/>
<path d="M2814 2622 c-17 -11 -26 -47 -18 -77 5 -19 12 -25 28 -23 17 2 22 11
24 44 3 42 -14 69 -34 56z"/>
<path d="M3600 2570 c0 -11 4 -20 9 -20 5 0 7 9 4 20 -3 11 -7 20 -9 20 -2 0
-4 -9 -4 -20z"/>
<path d="M2460 2380 c0 -5 5 -10 10 -10 6 0 10 5 10 10 0 6 -4 10 -10 10 -5 0
-10 -4 -10 -10z"/>
<path d="M2580 2350 c0 -22 5 -40 10 -40 6 0 10 18 10 40 0 22 -4 40 -10 40
-5 0 -10 -18 -10 -40z"/>
<path d="M2462 2319 c2 -6 8 -10 13 -10 5 0 11 4 13 10 2 6 -4 11 -13 11 -9 0
-15 -5 -13 -11z"/>
<path d="M2820 2351 c0 -22 4 -42 9 -45 10 -7 18 29 13 62 -6 37 -22 25 -22
-17z"/>
<path d="M3070 2344 c0 -27 4 -43 10 -39 6 3 10 24 10 46 0 21 -4 39 -10 39
-5 0 -10 -21 -10 -46z"/>
<path d="M2269 4023 c-13 -16 -12 -17 4 -4 16 13 21 21 13 21 -2 0 -10 -8 -17
-17z"/>
<path d="M1931 3717 c-13 -21 -12 -21 5 -5 10 10 16 20 13 22 -3 3 -11 -5 -18
-17z"/>
<path d="M1856 3613 c-6 -14 -5 -15 5 -6 7 7 10 15 7 18 -3 3 -9 -2 -12 -12z"/>
<path d="M1765 3419 c-4 -6 -5 -12 -2 -15 2 -3 7 2 10 11 7 17 1 20 -8 4z"/>
<path d="M1721 3273 c-1 -6 -4 -20 -7 -30 -5 -17 -5 -17 6 0 6 10 9 23 6 30
-3 9 -5 9 -5 0z"/>
<path d="M1500 4095 c0 -2 10 -10 23 -16 20 -11 21 -11 8 4 -13 16 -31 23 -31
12z"/>
<path d="M1310 3288 c-11 -18 -20 -36 -20 -40 0 -17 11 -6 30 32 25 48 18 53
-10 8z"/>
<path d="M1282 3290 c-7 -11 -12 -28 -12 -37 1 -10 7 -3 16 16 16 38 14 50 -4
21z"/>
<path d="M1282 2983 c-19 -46 -26 -89 -14 -78 11 10 34 96 28 103 -2 1 -8 -10
-14 -25z"/>
<path d="M1241 2950 c-7 -25 -8 -46 -3 -56 7 -12 11 -2 15 37 2 30 4 55 3 57
-2 1 -8 -16 -15 -38z"/>
<path d="M1335 2612 c-3 -21 -2 -49 4 -62 8 -21 10 -14 10 38 1 70 -4 80 -14
24z"/>
<path d="M1301 2575 c0 -28 6 -58 14 -69 13 -17 14 -13 8 35 -8 75 -22 97 -22
34z"/>
<path d="M1440 2248 c0 -3 4 -18 9 -34 5 -16 12 -41 15 -55 3 -15 12 -29 20
-32 12 -5 10 6 -6 51 -19 50 -38 86 -38 70z"/>
<path d="M1715 1819 c22 -48 39 -68 57 -69 4 0 -10 27 -30 60 -45 73 -59 78
-27 9z"/>
<path d="M4460 3297 c12 -20 26 -40 32 -43 15 -10 -19 51 -37 66 -12 10 -10 3
5 -23z"/>
<path d="M4490 3316 c0 -19 24 -76 32 -76 12 0 10 6 -12 47 -11 21 -20 34 -20
29z"/>
<path d="M4501 2969 c-1 -14 6 -34 14 -45 19 -25 19 -1 0 41 -13 30 -13 30
-14 4z"/>
<path d="M4539 2923 c2 -33 6 -42 12 -31 9 17 1 78 -10 78 -3 0 -4 -21 -2 -47z"/>
<path d="M4439 2608 c-2 -26 -1 -57 2 -70 5 -20 7 -19 13 13 4 19 3 51 -2 70
l-9 34 -4 -47z"/>
<path d="M4477 2595 c-19 -97 -19 -101 -2 -84 12 12 15 31 13 70 l-3 54 -8
-40z"/>
<path d="M4318 2188 c-25 -65 -27 -81 -5 -59 11 11 39 112 32 119 -1 2 -14
-25 -27 -60z"/>
<path d="M4053 1817 c-22 -34 -39 -63 -38 -65 2 -2 11 2 22 8 16 11 67 109 60
116 -1 2 -21 -25 -44 -59z"/>
<path d="M3400 1718 c-16 -26 -20 -51 -20 -115 0 -74 2 -83 22 -94 l21 -11
-23 -18 c-21 -16 -22 -22 -18 -99 6 -103 26 -136 84 -136 52 0 72 36 81 141 5
78 5 79 -21 93 -28 16 -34 31 -11 31 25 0 31 28 24 111 -8 96 -31 129 -86 129
-27 0 -37 -6 -53 -32z"/>
<path d="M3305 1676 c-26 -35 -60 -124 -50 -134 3 -3 5 -1 5 5 0 16 49 65 59
59 9 -6 26 93 18 101 -3 2 -17 -12 -32 -31z"/>
<path d="M2308 1723 c7 -3 16 -2 19 1 4 3 -2 6 -13 5 -11 0 -14 -3 -6 -6z"/>
<path d="M2232 1707 c-31 -12 -31 -13 -12 -25 11 -7 20 -9 20 -4 0 4 12 15 28
24 31 20 13 22 -36 5z"/>
<path d="M2632 1583 c2 -67 2 -67 5 -13 3 30 9 60 15 67 8 10 6 13 -6 13 -13
0 -16 -11 -14 -67z"/>
<path d="M2863 1003 c15 -2 39 -2 55 0 15 2 2 4 -28 4 -30 0 -43 -2 -27 -4z"/>
</g>
</svg>
